<svg width="24" height="25" viewBox="0 0 24 25" fill="none" xmlns="http://www.w3.org/2000/svg">
<path fill-rule="evenodd" clip-rule="evenodd" d="M6 8V11H5C3.34315 11 2 12.3431 2 14V21C2 22.6569 3.34315 24 5 24H19C20.6569 24 22 22.6569 22 21V14C22 12.3431 20.6569 11 19 11H18V8C18 4.68629 15.3137 2 12 2C8.68629 2 6 4.68629 6 8ZM12 4C9.79086 4 8 5.79086 8 8V11H16V8C16 5.79086 14.2091 4 12 4ZM12 19.5C13.1046 19.5 14 18.6046 14 17.5C14 16.3954 13.1046 15.5 12 15.5C10.8954 15.5 10 16.3954 10 17.5C10 18.6046 10.8954 19.5 12 19.5Z" fill="black"/>
</svg>
